<svg width="41" height="64" viewBox="0 0 41 64" fill="none" xmlns="http://www.w3.org/2000/svg">
<path d="M0 32C0 14.3269 14.3269 0 32 0H41V64H32C14.3269 64 0 49.6731 0 32Z" fill="#312525"/>
<g clip-path="url(#clip0_1_1109)">
<path d="M29.9285 27.1429H26.1785V26.6071C26.1785 25.7195 25.459 25 24.5714 25H22.4285C21.5409 25 20.8214 25.7195 20.8214 26.6071V27.1429H17.0714C16.7755 27.1429 16.5356 27.3827 16.5356 27.6786C16.5356 27.9745 16.7755 28.2143 17.0714 28.2143H17.6537L18.6785 39.513C18.7038 39.7897 18.9364 40.0011 19.2142 40H27.7857C28.0635 40.0011 28.2961 39.7897 28.3214 39.513L29.3462 28.2143H29.9285C30.2244 28.2143 30.4643 27.9744 30.4643 27.6786C30.4643 27.3827 30.2244 27.1429 29.9285 27.1429ZM21.8928 26.6071C21.8928 26.3113 22.1326 26.0714 22.4285 26.0714H24.5714C24.8673 26.0714 25.1071 26.3113 25.1071 26.6071V27.1429H21.8928V26.6071H21.8928ZM27.2966 38.9285H19.7033L18.7321 28.2143H21.3571H28.2705L27.2966 38.9285Z" fill="white"/>
<path d="M21.8929 37.2855C21.8928 37.2848 21.8928 37.2841 21.8927 37.2833L21.357 29.7834C21.336 29.4875 21.0791 29.2647 20.7832 29.2857C20.4874 29.3067 20.2646 29.5636 20.2856 29.8594L20.8213 37.3594C20.8413 37.6403 21.0754 37.8578 21.357 37.8571H21.3956C21.6907 37.8366 21.9134 37.5807 21.8929 37.2855Z" fill="white"/>
<path d="M23.5001 29.2856C23.2042 29.2856 22.9644 29.5255 22.9644 29.8214V37.3214C22.9644 37.6172 23.2042 37.8571 23.5001 37.8571C23.796 37.8571 24.0358 37.6172 24.0358 37.3214V29.8214C24.0358 29.5255 23.796 29.2856 23.5001 29.2856Z" fill="white"/>
<path d="M26.2164 29.2857C25.9205 29.2647 25.6637 29.4875 25.6427 29.7834L25.1069 37.2833C25.0852 37.5784 25.3069 37.8352 25.6019 37.8569C25.6028 37.8569 25.6037 37.857 25.6046 37.8571H25.6427C25.9243 37.8578 26.1584 37.6403 26.1784 37.3594L26.7141 29.8594C26.7351 29.5636 26.5123 29.3067 26.2164 29.2857Z" fill="white"/>
</g>
<defs>
<clipPath id="clip0_1_1109">
<rect width="15" height="15" fill="white" transform="translate(16 25)"/>
</clipPath>
</defs>
</svg>
