<svg width="25" height="25" viewBox="0 0 25 25" fill="none" xmlns="http://www.w3.org/2000/svg">
<circle cx="12.5" cy="12.5" r="12.5" fill="#312525"/>
<g clip-path="url(#clip0_1_1101)">
<path d="M16.3863 11.6818H13.3182V8.61364C13.3182 8.27491 13.0432 8 12.7045 8H12.2955C11.9567 8 11.6818 8.27491 11.6818 8.61364V11.6818H8.61364C8.27491 11.6818 8 11.9567 8 12.2955V12.7045C8 13.0432 8.27491 13.3182 8.61364 13.3182H11.6818V16.3863C11.6818 16.7251 11.9567 17 12.2955 17H12.7045C13.0432 17 13.3182 16.7251 13.3182 16.3863V13.3182H16.3863C16.7251 13.3182 17 13.0432 17 12.7045V12.2955C17 11.9567 16.7251 11.6818 16.3863 11.6818Z" fill="white"/>
</g>
<defs>
<clipPath id="clip0_1_1101">
<rect width="9" height="9" fill="white" transform="translate(8 8)"/>
</clipPath>
</defs>
</svg>
